<?xml version="1.0" encoding="UTF-8"?>
<svg id="uuid-2c8ef033-be04-4373-8dfa-1b376b33eaa8" xmlns="http://www.w3.org/2000/svg" viewBox="0 0 716.89 819.04" width="100%" height="100%" preserveAspectRatio="xMidYMid meet">
  <defs>
    <style>
      .uuid-32a33ad6-d828-4471-afc0-affd0990607d{fill:#1d2349;}
      .uuid-dc6a7f80-e026-4785-bec1-c59a50948314{fill:#1a1e3b;}
      .uuid-4817e40e-66fe-4c42-b4ae-a60edd6ce4c5{fill:#1d2247;}
      .uuid-c41af2e7-ce9f-4dab-b44b-1034d17acd69{fill:#191d39;}
      .uuid-526f5a88-4b40-4f49-a630-d46dd94cd028{fill:#1f2856;}
      .uuid-511e2d80-370c-4e07-90bd-32fb3f13c375{fill:#1bb8cc;}
    </style>
  </defs>
  <path id="uuid-dd2592d2-75c9-4c4e-956a-94f734051298" class="uuid-c41af2e7-ce9f-4dab-b44b-1034d17acd69" d="M398.35,5.42c41.02-.57,81.99-.38,123.01-.42,23.65.38,47.35-.11,71.02.34,3.47.24,6.91,1.87,8.43,5.17,1.31,2.95,1.98,6.24,1.9,9.46-.08,30.55.06,61.13-.07,91.68-1.85,1.87-1.21,3.94-1.32,6.32.09,3.32.1,6.63-.13,9.94-4.13-3.11-6.12-7.2-11.11-9.09-.08-10.28.16-20.57-.16-30.85-.15-18.99.29-38.03-.46-57-.45-4.63-.61-9.38-4.59-12.49-3.95-2.87-9.85-2.89-14.51-2.79-54.67.01-109.34,0-164.01,0-4.91-.11-10.04.18-14.51-2.21-1.69-1.14-3.02-2.66-1.77-4.73,1.95-2.48,5.21-3.47,8.28-3.33Z"/>
  <path id="uuid-0f9b5f82-c405-47ff-a70d-b8f988af8499" class="uuid-511e2d80-370c-4e07-90bd-32fb3f13c375" d="M130.36,10.51c49.66-.05,99.34,0,149-.03,20.54.14,41.7.81,61.99,4.2,9.67,1.5,18.6,4.47,27.87,7.52,12.67,4.28,25.21,8.18,37.59,13.31,15.46,6.56,29.28,16.31,42.53,26.49,19.72,15.91,37.99,35.14,50.87,57.07,6.86,11.51,12.78,23.6,18.11,35.88,7.18,17.22,11.85,35.78,15.67,54.01,3.42,16.95,4.14,33.79,4.56,51.01-.03,30.67-.02,61.33,0,92,.11,3.35-.2,6.66-.35,10-.25,4.37.69,10.91-2.52,14.37-2.07,1.24-4.81-1.12-6.29-2.41-16.96-16.33-32.79-33.93-49.41-50.58-4.47-4.24-8.1-9.21-9.83-15.19-2.16-6.6-.92-13.59-.45-20.34,1.52-21.2,2.64-43.67-.88-64.71-3.07-16.42-8.79-32.44-16.15-47.42-7.67-16.71-18.31-32.65-31.8-45.23-6.73-6.16-14.12-11.3-21.75-16.25-16.13-11.27-34.52-18.56-53.75-22.46-7.66-1.5-15.23-1.59-23.01-1.83-30.99-.62-62.02-.21-93.02-.36-10.3-.38-20.75.15-31-.99-5.57-.55-11.01-2.74-15.51-6.07-5.46-3.91-9.52-8.71-14.59-13.41-13.98-14.02-27.8-28.2-41.55-42.45-2.94-2.85-6.49-5.93-8.52-9.52-.76-1.51-1.34-3.88.55-4.8,3.22-1.93,7.99-1.68,11.64-1.81Z"/>
  <path id="uuid-24ae2dab-28db-40d3-9491-d33b2561b6ab" class="uuid-c41af2e7-ce9f-4dab-b44b-1034d17acd69" d="M179.03,94.3c7.38,7.62,15.02,14.97,22.14,22.85,5.11,5.61,11.36,10.95,16.01,16.99,1.59,2.14,2.58,4.48,1.54,7.13-1.82,3.82-5.06,7.06-7.55,10.47-22.82,29.54-33.06,68.29-27.5,105.23.58,4.38,1.78,8.63,2.48,12.99,2.94,16.76,9.61,32.38,18.39,46.89,5.91,9.65,12.75,19.15,20.73,27.21,31.53,32.91,78.79,50.08,124.08,44.49,24.94-2.81,48.78-12.66,68.7-27.88,10.34-7.8,19.87-16.83,29.57-25.44,3.01-3.12,6.46-7.43,10.75-8.75,1.93.58,3,2.02,3.31,3.96.86,6.66.53,13.8.59,20.53.14,35.32-.69,70.7-.66,106.01.05,4.24-2.97,7.25-7.24,6.98-46.34.02-92.67,0-139.01.01-13.12.07-26.51-2.51-39.15-5.88-32.36-9.03-63.44-25.03-88.7-47.3-16-14.51-30.39-30.68-42-48.94-19.27-29.97-31.38-64.37-34.64-99.88-1.13-12.65-.99-25.32-.9-38,.61-19.25,3.53-38.5,9.59-56.82,8.52-25.1,22.08-48.52,39.5-68.49,2.8-3.25,5.98-7.42,10.05-9.05,3.8-1.51,7.51,2.22,9.92,4.69Z"/>
  <path id="uuid-e178bdd6-327b-42ec-92eb-fd19d9bba372" class="uuid-dc6a7f80-e026-4785-bec1-c59a50948314" d="M324.37,109.4c13.62.25,27.19,2.18,40.16,6.42,19.6,6.42,37.43,18.51,51.74,33.24,5.68,6.22,11.67,12.91,15.57,20.42,1.14,2.64,2.86,6.29.92,8.94-1.23,2.14-3.93,1.54-5.8.7-3.31-1.8-5.67-4.88-7.89-7.85-10.11-13.57-22.31-25.35-36.87-34.07-18.44-10.8-39.51-16.2-60.84-16.35-15.2.29-30.2,2.8-44.2,8.89-25.03,10.65-46.22,29.83-59.4,53.62-9.04,16.73-13.61,35.62-13.72,54.61.32,41.34,21.96,81.02,55.68,104.67,18.03,12.75,39.59,20.63,61.65,22.05,8.93.89,18.07.81,26.99-.22,25.24-2.89,48.42-14.41,67.22-31.28,3.23-2.96,8.21-7.3,12.86-6.77,2.98,1.25,1.58,5.97.42,8.09-4.34,7.89-12.51,14.1-19.78,19.2-22,15.23-47.96,23.42-74.72,23.68-25.99.23-51.96-6.71-74.12-20.35-36.68-22.74-63.46-62.69-67.11-106.06-1-13.52-.84-27.53,1.68-40.87,2.07-11.14,6.36-22.01,11.68-31.98,12.4-22.91,31.71-42.05,54.63-54.39,19.3-10.54,41.34-15.12,63.25-14.34Z"/>
  <path id="uuid-5340f069-d800-4d97-8eb8-3859c3f94d31" class="uuid-32a33ad6-d828-4471-afc0-affd0990607d" d="M602.64,111.65c.05,11.02.17,22.06-.06,33.07-2.33,3.04-.66,8.47-1.36,12.19-4.74-2-6.12-9.22-11.14-11.24-.02-8.95-.03-17.9,0-26.85,4.99,1.89,6.98,5.98,11.11,9.09.23-3.31.22-6.62.13-9.94.11-2.38-.53-4.45,1.32-6.32Z"/>
  <path id="uuid-c6d099e8-2303-4c85-bf4e-d68b23aacf04" class="uuid-526f5a88-4b40-4f49-a630-d46dd94cd028" d="M602.58,144.72c-.29,3.45-.29,6.77-.08,10.23.13,19.67-.17,39.35.2,59.02-.07,35.44.08,70.89-.06,106.32-1.75-1.9-1.2-3.96-1.31-6.32-.03-6.32.24-12.68-.16-18.99-3.64,4.45-6.33,11.36-11.42,14.26,0-13.09-.14-26.19.16-39.27-.13-41.5.17-82.82.17-124.3,5.02,2.02,6.4,9.24,11.14,11.24.7-3.72-.97-9.15,1.36-12.19Z"/>
  <path id="uuid-3ad0897b-83d9-471c-ac1f-6645bebb3369" class="uuid-4817e40e-66fe-4c42-b4ae-a60edd6ce4c5" d="M601.17,294.98c.4,6.31.13,12.67.16,18.99.11,2.36-.44,4.42,1.31,6.32.02,8.8.22,17.66-.09,26.45-2.39,2.86-.61,8.11-1.42,11.7-3.81,2.05-6.78,5.52-10.56,7.79-.23,3.16.34,6.29-1.06,9.05.02-22.06.12-43.99.24-66.04,5.09-2.9,7.78-9.81,11.42-14.26Z"/>
  <path id="uuid-d600c974-46f2-4f7a-a161-33e37d2a487d" class="uuid-c41af2e7-ce9f-4dab-b44b-1034d17acd69" d="M602.55,346.74c-.8,9.02.69,18.15-.38,27.22-.08,9-.09,17.98-.36,26.99-.33,16.87,1.31,33.15-.88,50.03-.17,2.68-1.52,5.35-3.62,7.04-2.04,1.18-4.05.02-5.37-1.62-2.01-2.63-2.91-6.15-2.84-9.43.06-9.33-.02-18.67.04-28,.48-14.54-.21-29.17.37-43.69,1.4-2.76.83-5.89,1.06-9.05,3.78-2.27,6.75-5.74,10.56-7.79.81-3.59-.97-8.84,1.42-11.7Z"/>
</svg> 